<svg width="1592" height="525" viewBox="0 0 1592 525" fill="none" xmlns="http://www.w3.org/2000/svg">
<path d="M153.926 71.2289V119.837H50.8177V191.966H150.98V240.574H50.8177V340H0V71.2289H153.926Z" fill="#1C1C1C"/>
<path d="M236.249 340H188.745V71.1815H236.249V340Z" fill="#1C1C1C"/>
<path d="M303.295 129.783C295.439 129.783 288.566 126.96 282.674 121.313C277.027 115.422 274.204 108.548 274.204 100.692C274.204 92.8359 277.027 85.962 282.674 80.0701C288.566 74.1782 295.439 71.2322 303.295 71.2322C311.397 71.2322 318.271 74.1782 323.917 80.0701C329.809 85.962 332.755 92.8359 332.755 100.692C332.755 108.548 329.809 115.422 323.917 121.313C318.271 126.96 311.397 129.783 303.295 129.783ZM327.231 340H279.728V155.878H327.231V340Z" fill="#1C1C1C"/>
<path d="M458.352 345.155C430.611 345.155 407.412 335.827 388.754 317.169C370.342 298.511 361.136 275.434 361.136 247.939C361.136 220.443 370.342 197.367 388.754 178.709C407.412 160.051 430.611 150.722 458.352 150.722C476.273 150.722 492.599 155.019 507.329 163.611C522.058 172.203 533.229 183.742 540.839 198.226L499.964 222.162C496.281 214.551 490.635 208.537 483.025 204.118C475.66 199.699 467.313 197.489 457.984 197.489C443.745 197.489 431.961 202.277 422.632 211.851C413.304 221.18 408.639 233.209 408.639 247.939C408.639 262.178 413.304 274.207 422.632 284.027C431.961 293.356 443.745 298.02 457.984 298.02C467.558 298.02 476.028 295.933 483.393 291.76C491.003 287.341 496.65 281.326 500.332 273.716L541.575 297.284C533.474 312.013 521.936 323.675 506.96 332.267C492.231 340.859 476.028 345.155 458.352 345.155Z" fill="#1C1C1C"/>
<path d="M660.234 246.834L736.46 340H681.223L614.203 256.409V340H566.699V71.2289H614.203V236.892L677.541 155.878H734.251L660.234 246.834Z" fill="#1C1C1C"/>
<path d="M916.307 71.2289V119.837H813.199V191.966H913.361V240.574H813.199V340H762.381V71.2289H916.307Z" fill="#1C1C1C"/>
<path d="M998.63 340H951.126V71.1815H998.63V340Z" fill="#1C1C1C"/>
<path d="M1198.98 317.169C1180.32 335.827 1157.25 345.155 1129.75 345.155C1102.26 345.155 1079.18 335.827 1060.52 317.169C1041.86 298.511 1032.53 275.434 1032.53 247.939C1032.53 220.689 1041.86 197.735 1060.52 179.077C1079.42 160.174 1102.5 150.722 1129.75 150.722C1157 150.722 1180.08 160.174 1198.98 179.077C1217.88 197.98 1227.34 220.934 1227.34 247.939C1227.34 275.189 1217.88 298.266 1198.98 317.169ZM1094.03 284.395C1103.61 293.969 1115.51 298.757 1129.75 298.757C1143.99 298.757 1155.9 293.969 1165.47 284.395C1175.05 274.821 1179.83 262.669 1179.83 247.939C1179.83 233.209 1175.05 221.057 1165.47 211.483C1155.9 201.908 1143.99 197.121 1129.75 197.121C1115.51 197.121 1103.61 201.908 1094.03 211.483C1084.7 221.303 1080.04 233.455 1080.04 247.939C1080.04 262.423 1084.7 274.575 1094.03 284.395Z" fill="#1C1C1C"/>
<path d="M1429.58 269.297L1460.88 155.878H1511.33L1452.78 340H1407.49L1373.61 228.422L1339.73 340H1294.44L1235.89 155.878H1286.34L1317.64 268.929L1351.15 155.878H1396.07L1429.58 269.297Z" fill="#1C1C1C"/>
<path d="M1030.06 71H1515.06V120H1030.06V71Z" fill="#1C1C1C"/>
<path d="M360.064 71H538.064V120H360.064V71Z" fill="#1C1C1C"/>
<path d="M1531.06 71L1591.06 21V170L1531.06 120V71Z" fill="#1C1C1C"/>
<path d="M1444.06 27.5C1444.06 42.6878 1431.75 55 1416.56 55C1401.38 55 1389.06 42.6878 1389.06 27.5C1389.06 12.3122 1401.38 0 1416.56 0C1431.75 0 1444.06 12.3122 1444.06 27.5Z" fill="#1C1C1C"/>
<path d="M1515.06 27.5C1515.06 42.6878 1502.75 55 1487.56 55C1472.38 55 1460.06 42.6878 1460.06 27.5C1460.06 12.3122 1472.38 0 1487.56 0C1502.75 0 1515.06 12.3122 1515.06 27.5Z" fill="#1C1C1C"/>
<path d="M60.1652 404.903H67.2021L37.2954 453.223V487H31.0795V453.223L1.17281 404.903H8.20968L34.2461 447.242L60.1652 404.903ZM92.5816 488.29C83.981 488.29 76.6704 485.358 70.65 479.494C64.7077 473.552 61.7366 466.28 61.7366 457.68C61.7366 449.079 64.7077 441.847 70.65 435.983C76.5922 430.04 83.9028 427.069 92.5816 427.069C101.104 427.069 108.336 430.04 114.279 435.983C120.299 441.847 123.309 449.079 123.309 457.68C123.309 466.202 120.299 473.474 114.279 479.494C108.258 485.358 101.026 488.29 92.5816 488.29ZM74.8721 475.389C79.7197 480.237 85.6229 482.661 92.5816 482.661C99.4621 482.661 105.326 480.237 110.174 475.389C114.943 470.62 117.328 464.717 117.328 457.68C117.328 450.643 114.943 444.74 110.174 439.97C105.326 435.123 99.4621 432.699 92.5816 432.699C85.6229 432.699 79.7197 435.123 74.8721 439.97C70.1027 444.74 67.718 450.643 67.718 457.68C67.718 464.717 70.1027 470.62 74.8721 475.389ZM179.643 459.322V428.359H185.507V487H179.643V475.858C175.421 484.146 168.423 488.29 158.649 488.29C151.691 488.29 146.139 486.179 141.995 481.957C137.93 477.657 135.897 471.949 135.897 464.834V428.359H141.878V464.834C141.878 470.307 143.403 474.646 146.452 477.852C149.501 481.058 153.724 482.661 159.118 482.661C165.295 482.661 170.26 480.628 174.013 476.562C177.766 472.496 179.643 466.749 179.643 459.322ZM209.485 428.359V439.853C213.004 431.643 219.532 427.538 229.071 427.538V433.168C223.285 433.168 218.555 435.005 214.88 438.68C211.284 442.355 209.485 447.594 209.485 454.396V487H203.621V428.359H209.485ZM318.904 404.903V410.767H279.615V443.606H317.497V449.47H279.615V487H273.399V404.903H318.904ZM331.169 409.477C331.091 407.601 331.834 406.311 333.397 405.607C335.039 404.825 336.642 404.825 338.206 405.607C339.848 406.311 340.63 407.601 340.552 409.477C340.63 411.432 339.848 412.8 338.206 413.582C336.642 414.364 335.039 414.364 333.397 413.582C331.834 412.8 331.091 411.432 331.169 409.477ZM338.792 487H332.928V428.359H338.792V487ZM362.73 487H356.866V401.385H362.73V487ZM443.431 427.069C449.92 427.069 455.081 429.102 458.912 433.168C462.821 437.156 464.776 442.707 464.776 449.822V487H458.912V449.822C458.912 444.427 457.505 440.244 454.69 437.273C451.875 434.223 448.083 432.699 443.314 432.699C437.919 432.699 433.618 434.536 430.413 438.211C427.285 441.886 425.721 447.242 425.721 454.279V487H419.857V449.822C419.857 444.427 418.528 440.244 415.87 437.273C413.211 434.223 409.537 432.699 404.845 432.699C399.45 432.699 395.072 434.575 391.71 438.328C388.348 442.081 386.667 447.398 386.667 454.279V487H380.803V428.359H386.667V438.446C390.733 430.861 397.027 427.069 405.549 427.069C409.849 427.069 413.602 428.125 416.808 430.236C420.014 432.269 422.359 435.201 423.845 439.032C425.878 435.123 428.614 432.152 432.055 430.119C435.495 428.086 439.287 427.069 443.431 427.069ZM533.154 488.29C527.368 488.29 522.286 487.117 517.907 484.772C513.607 482.348 510.518 478.947 508.642 474.568L513.92 471.402C516.891 478.673 523.302 482.309 533.154 482.309C539.331 482.309 544.217 480.745 547.814 477.618C551.411 474.49 553.209 470.112 553.209 464.482V404.903H559.542V464.482C559.542 472.144 557.04 478.008 552.036 482.074C547.032 486.218 540.738 488.29 533.154 488.29ZM603.74 488.29C595.139 488.29 587.828 485.358 581.808 479.494C575.866 473.552 572.895 466.28 572.895 457.68C572.895 449.079 575.866 441.847 581.808 435.983C587.75 430.04 595.061 427.069 603.74 427.069C612.262 427.069 619.494 430.04 625.437 435.983C631.457 441.847 634.467 449.079 634.467 457.68C634.467 466.202 631.457 473.474 625.437 479.494C619.416 485.358 612.184 488.29 603.74 488.29ZM586.03 475.389C590.878 480.237 596.781 482.661 603.74 482.661C610.62 482.661 616.484 480.237 621.332 475.389C626.101 470.62 628.486 464.717 628.486 457.68C628.486 450.643 626.101 444.74 621.332 439.97C616.484 435.123 610.62 432.699 603.74 432.699C596.781 432.699 590.878 435.123 586.03 439.97C581.261 444.74 578.876 450.643 578.876 457.68C578.876 464.717 581.261 470.62 586.03 475.389ZM690.801 459.322V428.359H696.665V487H690.801V475.858C686.579 484.146 679.581 488.29 669.807 488.29C662.849 488.29 657.297 486.179 653.153 481.957C649.088 477.657 647.055 471.949 647.055 464.834V428.359H653.036V464.834C653.036 470.307 654.561 474.646 657.61 477.852C660.659 481.058 664.882 482.661 670.276 482.661C676.453 482.661 681.418 480.628 685.171 476.562C688.924 472.496 690.801 466.749 690.801 459.322ZM720.643 428.359V439.853C724.162 431.643 730.69 427.538 740.229 427.538V433.168C734.443 433.168 729.713 435.005 726.038 438.68C722.442 442.355 720.643 447.594 720.643 454.396V487H714.779V428.359H720.643ZM778.974 427.069C785.933 427.069 791.445 429.219 795.511 433.52C799.655 437.742 801.727 443.41 801.727 450.526V487H795.745V450.526C795.745 445.052 794.221 440.713 791.171 437.507C788.122 434.302 783.9 432.699 778.505 432.699C772.328 432.699 767.363 434.732 763.61 438.797C759.857 442.863 757.981 448.61 757.981 456.038V487H752.117V428.359H757.981V439.501C762.203 431.213 769.201 427.069 778.974 427.069ZM844.705 427.069C853.305 427.069 860.264 430.119 865.581 436.217C870.976 442.316 873.673 449.548 873.673 457.914C873.673 458.071 873.634 458.54 873.556 459.322C873.556 460.104 873.556 460.573 873.556 460.729H820.428C821.131 467.297 823.751 472.614 828.285 476.679C832.82 480.667 838.489 482.661 845.291 482.661C849.904 482.661 853.97 481.722 857.488 479.846C861.007 477.891 863.704 475.272 865.581 471.988L870.741 475.037C868.317 479.103 864.838 482.348 860.303 484.772C855.847 487.117 850.803 488.29 845.174 488.29C836.104 488.29 828.715 485.436 823.008 479.729C817.222 473.943 814.329 466.593 814.329 457.68C814.329 448.923 817.144 441.651 822.773 435.865C828.559 430.001 835.87 427.069 844.705 427.069ZM844.705 432.699C838.137 432.699 832.586 434.771 828.051 438.915C823.594 443.059 821.053 448.414 820.428 454.982H867.575C866.949 448.024 864.447 442.59 860.069 438.68C855.69 434.693 850.569 432.699 844.705 432.699ZM907.607 480.55L928.014 428.359H934.347L909.014 492.395C906.669 498.259 903.424 502.833 899.28 506.117C895.136 509.401 890.64 510.847 885.793 510.456V504.944C889.467 505.257 892.829 504.201 895.879 501.777C898.928 499.354 901.391 495.835 903.267 491.222L904.558 488.056L877.583 428.359H883.916L907.607 480.55ZM1002.41 488.29C994.907 488.29 988.496 486.57 983.179 483.13C977.862 479.611 974.266 474.881 972.389 468.939L977.784 465.772C979.27 470.932 982.124 474.998 986.346 477.969C990.568 480.862 995.924 482.309 1002.41 482.309C1008.9 482.309 1013.95 480.823 1017.54 477.852C1021.22 474.881 1023.05 470.893 1023.05 465.889C1023.05 461.433 1021.33 457.953 1017.89 455.451C1014.61 453.106 1009.25 450.721 1001.83 448.297L995.963 446.421L990.802 444.427C988.378 443.41 986.697 442.59 985.759 441.964C982.006 439.618 979.582 437.507 978.488 435.631C976.689 432.503 975.79 429.18 975.79 425.662C975.79 419.016 978.136 413.699 982.827 409.712C987.597 405.646 993.539 403.613 1000.65 403.613C1006.91 403.613 1012.3 405.177 1016.84 408.304C1021.45 411.432 1024.85 415.615 1027.04 420.853L1021.76 423.785C1017.93 414.325 1010.9 409.594 1000.65 409.594C995.103 409.594 990.607 411.08 987.167 414.051C983.805 416.944 982.124 420.736 982.124 425.427C982.124 429.884 983.687 433.207 986.815 435.396C989.942 437.586 995.064 439.853 1002.18 442.199C1006.79 443.762 1010.31 445.052 1012.73 446.069C1015.39 447.163 1018.13 448.61 1020.94 450.408C1026.57 453.849 1029.39 458.97 1029.39 465.772C1029.39 472.574 1026.92 478.048 1022 482.191C1017.15 486.257 1010.62 488.29 1002.41 488.29ZM1071.79 428.359V434.106H1054.32V472.223C1054.32 476.992 1055.57 479.924 1058.07 481.019C1060.65 482.113 1065.23 482.348 1071.79 481.722V487C1063.74 488.173 1057.8 487.625 1053.97 485.358C1050.21 483.012 1048.34 478.634 1048.34 472.223V434.106H1035.44V428.359H1048.34V413.699L1054.32 411.94V428.359H1071.79ZM1133.92 441.612V428.359H1139.9V487H1133.92V473.747C1131.34 478.282 1127.86 481.84 1123.48 484.42C1119.1 487 1114.17 488.29 1108.7 488.29C1100.41 488.29 1093.26 485.358 1087.24 479.494C1081.3 473.552 1078.33 466.28 1078.33 457.68C1078.33 449.079 1081.3 441.847 1087.24 435.983C1093.18 430.04 1100.34 427.069 1108.7 427.069C1114.17 427.069 1119.1 428.359 1123.48 430.94C1127.86 433.52 1131.34 437.077 1133.92 441.612ZM1091.46 475.389C1096.31 480.237 1102.21 482.661 1109.17 482.661C1116.05 482.661 1121.92 480.237 1126.76 475.389C1131.53 470.62 1133.92 464.717 1133.92 457.68C1133.92 450.643 1131.53 444.74 1126.76 439.97C1121.92 435.123 1116.05 432.699 1109.17 432.699C1102.21 432.699 1096.31 435.123 1091.46 439.97C1086.69 444.74 1084.31 450.643 1084.31 457.68C1084.31 464.717 1086.69 470.62 1091.46 475.389ZM1163.77 428.359V439.853C1167.29 431.643 1173.82 427.538 1183.36 427.538V433.168C1177.57 433.168 1172.84 435.005 1169.16 438.68C1165.57 442.355 1163.77 447.594 1163.77 454.396V487H1157.91V428.359H1163.77ZM1226.07 428.359V434.106H1208.59V472.223C1208.59 476.992 1209.84 479.924 1212.35 481.019C1214.93 482.113 1219.5 482.348 1226.07 481.722V487C1218.01 488.173 1212.07 487.625 1208.24 485.358C1204.49 483.012 1202.61 478.634 1202.61 472.223V434.106H1189.71V428.359H1202.61V413.699L1208.59 411.94V428.359H1226.07ZM1240.58 443.723C1240.58 448.649 1244.76 452.167 1253.13 454.279C1255.55 454.826 1257.31 455.256 1258.4 455.569C1259.58 455.803 1261.26 456.272 1263.45 456.976C1265.71 457.602 1267.39 458.305 1268.49 459.087C1269.66 459.869 1270.91 460.846 1272.24 462.019C1273.65 463.192 1274.63 464.599 1275.17 466.241C1275.8 467.805 1276.11 469.603 1276.11 471.636C1276.11 476.562 1274.16 480.589 1270.25 483.716C1266.42 486.765 1261.37 488.29 1255.12 488.29C1249.57 488.29 1244.84 487.117 1240.93 484.772C1237.02 482.426 1234.32 479.259 1232.84 475.272L1237.88 472.34C1238.97 475.624 1241.01 478.165 1243.98 479.963C1247.03 481.761 1250.74 482.661 1255.12 482.661C1259.65 482.661 1263.29 481.683 1266.03 479.729C1268.84 477.774 1270.25 475.076 1270.25 471.636C1270.25 466.319 1266.07 462.762 1257.7 460.964C1249.88 459.087 1244.64 457.367 1241.98 455.803C1237.14 452.988 1234.71 448.962 1234.71 443.723C1234.71 439.032 1236.55 435.084 1240.22 431.878C1244.06 428.672 1248.86 427.069 1254.65 427.069C1259.26 427.069 1263.33 428.125 1266.85 430.236C1270.37 432.347 1272.95 435.201 1274.59 438.797L1269.66 441.612C1268.49 438.797 1266.53 436.608 1263.8 435.044C1261.14 433.481 1258.09 432.699 1254.65 432.699C1250.58 432.699 1247.22 433.715 1244.56 435.748C1241.91 437.781 1240.58 440.439 1240.58 443.723ZM1376.69 441.847V404.903H1382.91V487H1376.69V447.711H1328.96V487H1322.74V404.903H1328.96V441.847H1376.69ZM1428.48 427.069C1437.08 427.069 1444.04 430.119 1449.35 436.217C1454.75 442.316 1457.44 449.548 1457.44 457.914C1457.44 458.071 1457.41 458.54 1457.33 459.322C1457.33 460.104 1457.33 460.573 1457.33 460.729H1404.2C1404.9 467.297 1407.52 472.614 1412.06 476.679C1416.59 480.667 1422.26 482.661 1429.06 482.661C1433.68 482.661 1437.74 481.722 1441.26 479.846C1444.78 477.891 1447.48 475.272 1449.35 471.988L1454.51 475.037C1452.09 479.103 1448.61 482.348 1444.07 484.772C1439.62 487.117 1434.58 488.29 1428.95 488.29C1419.88 488.29 1412.49 485.436 1406.78 479.729C1400.99 473.943 1398.1 466.593 1398.1 457.68C1398.1 448.923 1400.92 441.651 1406.54 435.865C1412.33 430.001 1419.64 427.069 1428.48 427.069ZM1428.48 432.699C1421.91 432.699 1416.36 434.771 1411.82 438.915C1407.37 443.059 1404.82 448.414 1404.2 454.982H1451.35C1450.72 448.024 1448.22 442.59 1443.84 438.68C1439.46 434.693 1434.34 432.699 1428.48 432.699ZM1477.02 428.359V439.853C1480.53 431.643 1487.06 427.538 1496.6 427.538V433.168C1490.82 433.168 1486.08 435.005 1482.41 438.68C1478.81 442.355 1477.02 447.594 1477.02 454.396V487H1471.15V428.359H1477.02ZM1531.33 427.069C1539.93 427.069 1546.89 430.119 1552.2 436.217C1557.6 442.316 1560.29 449.548 1560.29 457.914C1560.29 458.071 1560.26 458.54 1560.18 459.322C1560.18 460.104 1560.18 460.573 1560.18 460.729H1507.05C1507.75 467.297 1510.37 472.614 1514.91 476.679C1519.44 480.667 1525.11 482.661 1531.91 482.661C1536.53 482.661 1540.59 481.722 1544.11 479.846C1547.63 477.891 1550.33 475.272 1552.2 471.988L1557.36 475.037C1554.94 479.103 1551.46 482.348 1546.92 484.772C1542.47 487.117 1537.43 488.29 1531.8 488.29C1522.73 488.29 1515.34 485.436 1509.63 479.729C1503.84 473.943 1500.95 466.593 1500.95 457.68C1500.95 448.923 1503.77 441.651 1509.39 435.865C1515.18 430.001 1522.49 427.069 1531.33 427.069ZM1531.33 432.699C1524.76 432.699 1519.21 434.771 1514.67 438.915C1510.22 443.059 1507.67 448.414 1507.05 454.982H1554.2C1553.57 448.024 1551.07 442.59 1546.69 438.68C1542.31 434.693 1537.19 432.699 1531.33 432.699ZM1580.22 465.889H1575.53L1574.35 428.359V404.903H1581.39V428.359L1580.22 465.889ZM1583.15 482.895C1583.15 484.381 1582.64 485.632 1581.62 486.648C1580.61 487.665 1579.36 488.173 1577.87 488.173C1576.39 488.173 1575.13 487.665 1574.12 486.648C1573.1 485.632 1572.59 484.381 1572.59 482.895C1572.59 481.41 1573.1 480.159 1574.12 479.142C1575.13 478.126 1576.39 477.618 1577.87 477.618C1579.36 477.618 1580.61 478.126 1581.62 479.142C1582.64 480.159 1583.15 481.41 1583.15 482.895Z" fill="#1C1C1C"/>
</svg>
